<?xml version="1.0" encoding="UTF-8" standalone="no"?>
<svg width="30px" height="81px" viewBox="0 0 30 81" version="1.1" xmlns="http://www.w3.org/2000/svg" xmlns:xlink="http://www.w3.org/1999/xlink" xmlns:sketch="http://www.bohemiancoding.com/sketch/ns">
    <!-- Generator: Sketch 3.3.2 (12043) - http://www.bohemiancoding.com/sketch -->
    <title>Slice 1</title>
    <desc>Created with Sketch.</desc>
    <defs></defs>
    <g id="Page-1" stroke="none" stroke-width="1" fill="none" fill-rule="evenodd" sketch:type="MSPage">
        <g id="dude" sketch:type="MSLayerGroup" fill="#000000">
            <path d="M17.3808132,13.882286 L18.6078132,13.882286 C23.2839307,13.882286 21.7108134,19.1065868 21.7108134,28.4562863 C21.7108134,37.8059858 21.7108132,39.938286 21.7108132,39.938286 L21.7108134,48.6266059 C21.7108134,51.1871527 15.3958132,50.453286 15.3958132,50.453286 C15.2968132,49.568286 14.2598132,49.576286 14.1638132,50.453286 C14.1638132,50.453286 7.7758132,51.2369574 7.7758132,48.6266059 L7.77581321,40.048286 C7.77581321,40.048286 7.77581321,37.7981726 7.77581321,28.456286 C7.7758132,19.1143993 5.92481321,13.882286 10.8718132,13.882286 L12.0978132,13.882286 L17.3808132,13.882286 Z" id="body" sketch:type="MSShapeGroup"></path>
            <path d="M14.3044778,49.453286 L11.3256836,77.2592778 C10.8176836,81.7112778 4.42412891,80.6317114 4.93212891,76.1787114 L7.76806641,47.0522461 C8.46826172,43.9023433 15.3122899,46.4736328 14.3044778,49.453286 Z" id="leftLeg" sketch:type="MSShapeGroup"></path>
            <path d="M15.2489866,49.453286 L18.2277808,77.2592778 C18.7357808,81.7112778 25.1293356,80.6317114 24.6213356,76.1787114 C24.6213356,76.1787114 21.5832032,47.1025391 21.7832032,47.1025391 C21.0830079,43.9526363 14.2411746,46.4736328 15.2489866,49.453286 L15.2489866,49.453286 Z" id="rightLeg" sketch:type="MSShapeGroup"></path>
            <path d="M9.39697266,16.6362304 L4.92580194,41.252 C4.32980194,45.351 -0.895198061,44.376 0.133801939,39.976 L4.92580175,16.6362305 C4.92580175,13.8396329 10.1982422,12.1814296 9.39697266,16.6362304 Z" id="leftArm" sketch:type="MSShapeGroup"></path>
            <path d="M19.9930063,16.6362304 L24.464177,41.252 C25.060177,45.351 30.285177,44.376 29.256177,39.976 L24.4641772,16.6362305 C24.4641772,13.8396329 19.1917367,12.1814296 19.9930063,16.6362304 L19.9930063,16.6362304 Z" id="rightArm" sketch:type="MSShapeGroup"></path>
            <path d="M14.701,0 C17.669,0 20.075,2.405 20.075,5.373 C20.075,8.341 17.669,10.747 14.701,10.747 C11.733,10.747 9.327,8.341 9.327,5.373 C9.327,2.405 11.733,0 14.701,0 L14.701,0 Z" id="head" sketch:type="MSShapeGroup"></path>
        </g>
    </g>
</svg>